<svg id="Layer_1" data-name="Layer 1" xmlns="http://www.w3.org/2000/svg" viewBox="0 0 418.98 89.04"><defs><style>.cls-1{fill:#043540;}.cls-2{fill:#8bc7b9;}.cls-3{fill:#ffd962;}.cls-4{fill:none;}</style></defs><title>tinderbox_volunteer_logo</title><path class="cls-1" d="M244.58,43.94a1.37,1.37,0,0,1-.4.16.73.73,0,0,1-.64-.32L234,30.62H226.8a.72.72,0,0,1,0-1.44h7.58a.73.73,0,0,1,.64.32L244.82,43a.78.78,0,0,1-.24,1M225.53,23.69V13.32a1.23,1.23,0,0,1,1.2-1.2h9.33c4.95,0,6.78,2.79,6.78,6.46,0,3.35-1.83,6.3-6.78,6.3H226.8a1.15,1.15,0,0,1-1.28-1.2M225.13,7a.72.72,0,0,1,.72-.72h11.64a11.79,11.79,0,0,1,7.9,2.79A11.21,11.21,0,0,1,249.13,18a14.77,14.77,0,0,1-6.94,12.52.61.61,0,0,1-.4.08.81.81,0,0,1-.64-.4.74.74,0,0,1,.32-1,13.25,13.25,0,0,0,6.22-11.24c0-7.1-5.1-10.21-10.21-10.21H225.84a.71.71,0,0,1-.72-.72m-4.86,1.67V43.46a.72.72,0,1,1-1.44,0V8.69a1.74,1.74,0,0,1-1-1.59,1.75,1.75,0,1,1,3.51,0,1.83,1.83,0,0,1-1,1.59m25.68,26.8a1,1,0,0,1,.4-1.6c5.74-3.11,8.37-9,8.37-15.39C254.71,8.93,249.05,1,236.77,1H214.84a1.45,1.45,0,0,0-1.44,1.52V47.53A1.5,1.5,0,0,0,214.84,49h9.25a1.45,1.45,0,0,0,1.44-1.52V37.32a1.23,1.23,0,0,1,1.2-1.2h3.83a2.8,2.8,0,0,1,2,1L240,47.69a3,3,0,0,0,2.31,1.2h11.72a.76.76,0,0,0,.64-1.2Z"/><path class="cls-1" d="M105.58,43.38a.72.72,0,1,1-1.44,0V7a.72.72,0,1,1,1.44,0Zm-6.06-6.22a1.13,1.13,0,0,1-.48.16.72.72,0,0,1-.56-.24L78.71,13.24a.74.74,0,1,1,1.12-1l19.7,23.84a.68.68,0,0,1,0,1M73,45.14a1.77,1.77,0,0,1-1.75-1.75,1.94,1.94,0,0,1,1.12-1.67V7a.72.72,0,1,1,1.44,0V41.79a1.81,1.81,0,0,1,1,1.59A1.77,1.77,0,0,1,73,45.14M109.81,1h-9.25a1.45,1.45,0,0,0-1.44,1.52V26.56c0,.4-.48.64-.72.24L78.71,2.15A3,3,0,0,0,76.32,1h-7.5a1.45,1.45,0,0,0-1.44,1.52V47.53A1.5,1.5,0,0,0,68.82,49h9.33a1.45,1.45,0,0,0,1.44-1.52V23.45c0-.4.48-.64.72-.24L100,47.85A3.06,3.06,0,0,0,102.4,49h7.42a1.45,1.45,0,0,0,1.44-1.52V2.47A1.4,1.4,0,0,0,109.81,1"/><path class="cls-1" d="M334.3,45.06h-.08a.65.65,0,0,1-.72-.64.68.68,0,0,1,.64-.8,18.72,18.72,0,0,0-1-37.16,1.77,1.77,0,0,1-3.35,0,18.72,18.72,0,0,0-1.52,37.08.77.77,0,1,1-.24,1.51,20.25,20.25,0,0,1,2-40.11,1.89,1.89,0,0,1,1.52-.88,1.71,1.71,0,0,1,1.52.88,20.26,20.26,0,0,1,18.66,20.18A20.53,20.53,0,0,1,334.3,45.06M318.35,25a13,13,0,1,1,13,13.08,13,13,0,0,1-13-13.08m13-25C317.55,0,306,11.16,306,24.88s11.56,24.88,25.36,24.88c14,0,25.36-11.17,25.36-24.88S345.38,0,331.35,0"/><path class="cls-1" d="M201.92,7.9h-18.5a.72.72,0,1,1,0-1.44h18.5a.72.72,0,0,1,0,1.44M183.34,24.16h12.84a1.77,1.77,0,1,1,1.67,2.39,1.69,1.69,0,0,1-1.52-1H183.42a.71.71,0,0,1-.72-.72.65.65,0,0,1,.64-.72M177,43.46a.72.72,0,1,1-1.44,0V7A.72.72,0,1,1,177,7Zm6.3-.88h18.5a.72.72,0,0,1,0,1.44h-18.5a.72.72,0,1,1,0-1.44M205.27,1H171.46A1.45,1.45,0,0,0,170,2.47V47.53A1.5,1.5,0,0,0,171.46,49h33.81a1.45,1.45,0,0,0,1.44-1.52v-9A1.5,1.5,0,0,0,205.27,37H183.5a1.23,1.23,0,0,1-1.2-1.2V32.14a1.23,1.23,0,0,1,1.2-1.2H201a1.45,1.45,0,0,0,1.44-1.52V21.29A1.5,1.5,0,0,0,201,19.78H183.58a1.23,1.23,0,0,1-1.2-1.2V14.12a1.23,1.23,0,0,1,1.2-1.2h21.77a1.45,1.45,0,0,0,1.44-1.52V2.47A1.51,1.51,0,0,0,205.27,1"/><path class="cls-1" d="M392.28,44c-.16.08-.24.16-.4.16a.72.72,0,0,1-.64-.32l-25-36.45a.74.74,0,0,1,1.2-.88l25,36.37a.84.84,0,0,1-.16,1.12M375.45,31.66h0l-8.37,12.12a.73.73,0,0,1-.64.32.62.62,0,0,1-.4-.16.76.76,0,0,1-.16-1l8.21-12a1.9,1.9,0,0,1-.4-1.12,1.75,1.75,0,1,1,3.51,0,1.79,1.79,0,0,1-1.75,1.83m6.46-12.2L391,6.62a.74.74,0,0,1,1.2.88L383.1,20.34a.73.73,0,0,1-.64.32.6.6,0,0,1-.4-.16.76.76,0,0,1-.16-1m19.94,28.23L386.93,25.84a1.94,1.94,0,0,1,0-2.07L401.53,2.15a.78.78,0,0,0-.64-1.2H389.33A2.91,2.91,0,0,0,387,2.15L379.6,13.08a.79.79,0,0,1-1.36-.08L370.9,2.15A3,3,0,0,0,368.59,1H357a.76.76,0,0,0-.64,1.2L371,23.76a2,2,0,0,1,0,2.07L356.07,47.69a.74.74,0,0,0,.64,1.2h12a2.65,2.65,0,0,0,2.23-1.2l7.34-10.93a.82.82,0,0,1,1.36,0L387,47.69a2.76,2.76,0,0,0,2.23,1.2h12a.73.73,0,0,0,.64-1.2"/><path class="cls-1" d="M131.5,35.81V14.12a1.23,1.23,0,0,1,1.2-1.2h7.81c7.34,0,11.17,4.86,11.17,12s-3.83,12.12-11.17,12.12H132.7a1.24,1.24,0,0,1-1.2-1.28M143.15,44H131.9a.72.72,0,0,1,0-1.44h11.24c7.82,0,14-9.65,14-17.86,0-9.41-6.54-16.83-14.91-16.83H131.9a.72.72,0,0,1,0-1.44h10.29c9.17,0,16.43,8.05,16.43,18.26C158.54,35.81,150.4,44,143.15,44M126.08,8.69c0,.08.08.16.08.24V43.38a.72.72,0,0,1-1.44,0V8.93a.29.29,0,0,1,.08-.24,1.66,1.66,0,0,1-1-1.6,1.75,1.75,0,1,1,3.51,0,2.25,2.25,0,0,1-1.2,1.6M141.47,1H120.74a1.45,1.45,0,0,0-1.44,1.52V47.53A1.5,1.5,0,0,0,120.74,49h20.73c15,0,22.65-10.93,22.65-24S156.46,1,141.47,1"/><path class="cls-1" d="M273.21,36.6v-6a1.23,1.23,0,0,1,1.2-1.2h11.09c3.35,0,4.55,1.68,4.55,4.15s-1.2,4.31-4.55,4.31h-11a1.37,1.37,0,0,1-1.28-1.28M294,41.95a9.47,9.47,0,0,1-6,2.15H275.53a1.74,1.74,0,0,1-1.59,1,1.75,1.75,0,0,1,0-3.51,1.66,1.66,0,0,1,1.59,1H288c3.59,0,7.5-2.47,7.5-7.82,0-6.06-5.74-9.41-9.73-9.41H273.93a.72.72,0,1,1,0-1.44h11.88a12.07,12.07,0,0,1,7.42,2.79,10.44,10.44,0,0,1,3.83,8.13,8.81,8.81,0,0,1-3,7m-26.16,1.44a.72.72,0,1,1-1.44,0V7.1a.72.72,0,1,1,1.44,0Zm20-27.43c0,2.31-1.2,3.83-4.55,3.83h-8.93a1.23,1.23,0,0,1-1.2-1.2V13.4a1.23,1.23,0,0,1,1.2-1.2H284a3.49,3.49,0,0,1,3.91,3.75M273.37,6.38h11.88c5.66,0,9.17,3.27,9.17,8.45a9.79,9.79,0,0,1-3,6.94.59.59,0,0,1-.48.16.72.72,0,0,1-.56-.24.75.75,0,0,1,.08-1A8.18,8.18,0,0,0,293,14.83c0-4.39-2.87-6.94-7.66-6.94H273.45a.71.71,0,0,1-.72-.72.64.64,0,0,1,.64-.8M295.54,24.8a.64.64,0,0,1-.08-1.12,10.81,10.81,0,0,0,4.78-9.49C300.25,6.54,295,1,284.7,1H262.37a1.45,1.45,0,0,0-1.44,1.52V47.53A1.5,1.5,0,0,0,262.37,49h24.4c9.65,0,15.55-5.58,15.55-13.56a10.84,10.84,0,0,0-6.78-10.69"/><path class="cls-1" d="M54,8.69V43.38a.72.72,0,1,1-1.44,0V8.69a1.66,1.66,0,0,1-1-1.6A1.75,1.75,0,0,1,55,7.1a1.66,1.66,0,0,1-1,1.6M57.9,1H48.57a1.45,1.45,0,0,0-1.44,1.52V47.53A1.5,1.5,0,0,0,48.57,49H57.9a1.45,1.45,0,0,0,1.44-1.52V2.47A1.45,1.45,0,0,0,57.9,1"/><path class="cls-1" d="M36.84,7.9H21.69V41.79a1.75,1.75,0,0,1,1,1.59,1.75,1.75,0,0,1-3.51,0,1.67,1.67,0,0,1,1-1.59V7.9H4.07a.72.72,0,0,1,0-1.44H36.84a.72.72,0,0,1,0,1.44M40.59,1H1.44A1.45,1.45,0,0,0,0,2.47v9A1.5,1.5,0,0,0,1.44,13h12.2a1.23,1.23,0,0,1,1.2,1.2V47.53A1.5,1.5,0,0,0,16.27,49H25.6A1.45,1.45,0,0,0,27,47.53V14.12a1.23,1.23,0,0,1,1.2-1.2h12.2a1.45,1.45,0,0,0,1.44-1.52V2.47A1.22,1.22,0,0,0,40.59,1"/><path class="cls-2" d="M180.34,87.73a1.28,1.28,0,0,1-1.17.78h-5.32a1.28,1.28,0,0,1-1.17-.78L162.14,61.62a.57.57,0,0,1,.53-.78h6a1.23,1.23,0,0,1,1.14.78l6.42,17.14a.26.26,0,0,0,.5,0l6.46-17.14a1.23,1.23,0,0,1,1.14-.78h6a.57.57,0,0,1,.53.78Z"/><path class="cls-2" d="M190.23,74.67A14.69,14.69,0,1,1,204.92,89a14.63,14.63,0,0,1-14.69-14.37m7.17,0a7.52,7.52,0,1,0,7.52-7.52,7.5,7.5,0,0,0-7.52,7.52"/><path class="cls-2" d="M223.4,88.51a.86.86,0,0,1-.85-.85v-26a.86.86,0,0,1,.85-.85h5.36a.86.86,0,0,1,.85.85V81a.71.71,0,0,0,.71.71H242a.86.86,0,0,1,.85.85v5.14a.86.86,0,0,1-.85.85Z"/><path class="cls-2" d="M262.88,61.69a.86.86,0,0,1,.85-.85h5.36a.86.86,0,0,1,.85.85V76.41c0,7.13-4.47,12.63-12.74,12.63s-12.7-5.5-12.7-12.63V61.69a.86.86,0,0,1,.85-.85h5.39a.86.86,0,0,1,.85.85V76c0,4,1.92,6.21,5.6,6.21s5.68-2.2,5.68-6.21Z"/><path class="cls-2" d="M280.86,87.66a.86.86,0,0,1-.85.85h-5.36a.86.86,0,0,1-.85-.85v-26a.86.86,0,0,1,.85-.85h4.29a1.75,1.75,0,0,1,1.38.67l11.39,14.23a.23.23,0,0,0,.43-.14V61.69a.86.86,0,0,1,.85-.85h5.36a.86.86,0,0,1,.85.85v26a.86.86,0,0,1-.85.85h-4.29a1.75,1.75,0,0,1-1.38-.68L281.28,73.65a.23.23,0,0,0-.43.14Z"/><path class="cls-2" d="M302.6,67.72a.86.86,0,0,1-.85-.85V61.69a.86.86,0,0,1,.85-.85h22.64a.86.86,0,0,1,.85.85v5.18a.86.86,0,0,1-.85.85h-7.06a.71.71,0,0,0-.71.71V87.66a.86.86,0,0,1-.85.85h-5.39a.86.86,0,0,1-.85-.85V68.43a.71.71,0,0,0-.71-.71Z"/><path class="cls-2" d="M329.49,88.51a.86.86,0,0,1-.85-.85v-26a.86.86,0,0,1,.85-.85H349a.86.86,0,0,1,.85.85v5.18a.86.86,0,0,1-.85.85H336.44a.71.71,0,0,0-.71.71V71a.71.71,0,0,0,.71.71h10.08a.86.86,0,0,1,.85.85v4.72a.86.86,0,0,1-.85.85H336.44a.71.71,0,0,0-.71.71V81a.71.71,0,0,0,.71.71H349a.86.86,0,0,1,.85.85v5.14a.86.86,0,0,1-.85.85Z"/><path class="cls-2" d="M354.17,88.51a.86.86,0,0,1-.85-.85v-26a.86.86,0,0,1,.85-.85h19.55a.86.86,0,0,1,.85.85v5.18a.86.86,0,0,1-.85.85H361.13a.71.71,0,0,0-.71.71V71a.71.71,0,0,0,.71.71H371.2a.86.86,0,0,1,.85.85v4.72a.86.86,0,0,1-.85.85H361.13a.71.71,0,0,0-.71.71V81a.71.71,0,0,0,.71.71h12.59a.86.86,0,0,1,.85.85v5.14a.86.86,0,0,1-.85.85Z"/><path class="cls-2" d="M378,61.69a.86.86,0,0,1,.85-.85h12.67c7.1,0,10.36,4.61,10.36,10.11,0,3.65-1.52,7.06-4.82,8.87a.62.62,0,0,0-.21.92l5.07,7.06a.44.44,0,0,1-.35.71h-6.78a1.71,1.71,0,0,1-1.35-.71l-4.33-6.14A1.43,1.43,0,0,0,388,81.1h-2.2a.71.71,0,0,0-.71.71v5.85a.86.86,0,0,1-.85.85h-5.36a.86.86,0,0,1-.85-.85Zm13.13,5.61h-5.36a.71.71,0,0,0-.71.71v6a.71.71,0,0,0,.71.71h5.36c2.84,0,3.9-1.74,3.9-3.65,0-2.13-1.06-3.72-3.9-3.72"/><path class="cls-3" d="M414.26,49.76a4.72,4.72,0,0,0-4.36,2.92H97.75a1.79,1.79,0,0,0,0,3.59H409.9a4.72,4.72,0,1,0,4.36-6.51"/><rect class="cls-4" y="0.96" width="418.98" height="88.09"/><rect class="cls-4" y="0.96" width="418.98" height="88.09"/></svg>