<?xml version="1.0" encoding="utf-8"?>
<!-- Generator: Adobe Illustrator 20.1.0, SVG Export Plug-In . SVG Version: 6.00 Build 0)  -->
<svg version="1.1" id="Layer_1" xmlns="http://www.w3.org/2000/svg" xmlns:xlink="http://www.w3.org/1999/xlink" x="0px" y="0px"
	 viewBox="0 0 87.8 100" enable-background="new 0 0 87.8 100" xml:space="preserve">
<path fill="#043540" d="M77,14.4H45.4v70.7c1.3,0.6,2.2,1.9,2.2,3.4c0,2-1.7,3.7-3.7,3.7c-2,0-3.7-1.7-3.7-3.7
	c0-1.5,0.9-2.8,2.2-3.4V14.4H8.5c-0.9,0-1.5-0.7-1.5-1.5c0-0.9,0.7-1.5,1.5-1.5H77c0.9,0,1.5,0.7,1.5,1.5
	C78.5,13.8,77.8,14.4,77,14.4 M84.7,0H3.1C1.4,0,0,1.4,0,3.1v18.8c0,1.7,1.4,3.1,3.1,3.1h25.5c1.4,0,2.6,1.2,2.6,2.6v69.6
	c0,1.7,1.4,3.1,3.1,3.1h19.5c1.7,0,3.1-1.4,3.1-3.1V27.5c0-1.4,1.2-2.6,2.6-2.6h25.5c1.7,0,3.1-1.4,3.1-3.1V3.1
	C87.8,1.4,86.4,0,84.7,0"/>
</svg>
