<?xml version="1.0" encoding="utf-8"?>
<!-- Generator: Adobe Illustrator 20.1.0, SVG Export Plug-In . SVG Version: 6.00 Build 0)  -->
<svg version="1.1" id="Layer_1" xmlns="http://www.w3.org/2000/svg" xmlns:xlink="http://www.w3.org/1999/xlink" x="0px" y="0px"
	 viewBox="0 0 503.9 92.8" enable-background="new 0 0 503.9 92.8" xml:space="preserve">
<path fill="#F28778" d="M70.4,91.5c0.2,0,0.3,0.2,0.3,0.3v2c0,0.2-0.2,0.3-0.3,0.3h-3.7c-0.2,0-0.3-0.2-0.3-0.3v-2
	c0-0.2,0.2-0.3,0.3-0.3H70.4z"/>
<path fill="#043540" d="M306.7,53.9c-0.2,0.1-0.4,0.2-0.5,0.2c-0.3,0-0.6-0.1-0.8-0.4l-12-16.5h-9c-0.5,0-0.9-0.4-0.9-0.9
	c0-0.5,0.4-0.9,0.9-0.9h9.5c0.3,0,0.6,0.1,0.8,0.4l12.3,16.9C307.2,53,307.1,53.6,306.7,53.9 M282.8,28.5v-13c0-0.8,0.7-1.5,1.5-1.5
	H296c6.2,0,8.5,3.5,8.5,8.1c0,4.2-2.3,7.9-8.5,7.9h-11.6C283.5,30.1,282.8,29.4,282.8,28.5 M282.3,7.6c0-0.5,0.4-0.9,0.9-0.9h14.6
	c3.8,0,7.3,1.2,9.9,3.5c3.1,2.6,4.7,6.5,4.7,11.2c0,10.7-8.4,15.5-8.7,15.7c-0.1,0.1-0.3,0.1-0.5,0.1c-0.3,0-0.6-0.2-0.8-0.5
	c-0.3-0.4-0.1-1,0.4-1.3c0.3-0.2,7.8-4.5,7.8-14.1c0-8.9-6.4-12.8-12.8-12.8h-14.6C282.7,8.5,282.3,8.1,282.3,7.6 M276.2,9.7v43.6
	c0,0.5-0.4,0.9-0.9,0.9c-0.5,0-0.9-0.4-0.9-0.9V9.7c-0.8-0.4-1.3-1.1-1.3-2c0-1.2,1-2.2,2.2-2.2c1.2,0,2.2,1,2.2,2.2
	C277.5,8.5,277,9.3,276.2,9.7 M308.4,43.3c-0.5-0.7-0.3-1.6,0.5-2c7.2-3.9,10.5-11.3,10.5-19.3c0-12-7.1-22-22.5-22h-27.5
	c-1,0-1.8,0.8-1.8,1.9v56.5c0,1,0.8,1.9,1.8,1.9H281c1,0,1.8-0.8,1.8-1.9V45.6c0-0.8,0.7-1.5,1.5-1.5h4.8c0.9,0,1.9,0.5,2.5,1.2
	l9.4,13.3c0.7,0.9,1.8,1.5,2.9,1.5h14.7c0.8,0,1.2-0.8,0.8-1.5L308.4,43.3z"/>
<path fill="#043540" d="M132.4,53.2c0,0.5-0.4,0.9-0.9,0.9c-0.5,0-0.9-0.4-0.9-0.9V7.6c0-0.5,0.4-0.9,0.9-0.9c0.5,0,0.9,0.4,0.9,0.9
	V53.2z M124.8,45.4c-0.2,0.1-0.4,0.2-0.6,0.2c-0.3,0-0.5-0.1-0.7-0.3L98.7,15.4c-0.3-0.4-0.3-1,0.1-1.3c0.4-0.3,1-0.3,1.3,0.1
	l24.7,29.9C125.2,44.5,125.2,45.1,124.8,45.4 M91.6,55.4c-1.2,0-2.2-1-2.2-2.2c0-0.9,0.6-1.7,1.4-2.1V7.6c0-0.5,0.4-0.9,0.9-0.9
	s0.9,0.4,0.9,0.9v43.6c0.7,0.4,1.2,1.1,1.2,2C93.8,54.4,92.8,55.4,91.6,55.4 M137.7,0h-11.6c-1,0-1.8,0.8-1.8,1.9v30.2
	c0,0.5-0.6,0.8-0.9,0.3L98.7,1.5C98,0.5,96.8,0,95.7,0h-9.4c-1,0-1.8,0.8-1.8,1.9v56.5c0,1,0.8,1.9,1.8,1.9H98c1,0,1.8-0.8,1.8-1.9
	V28.2c0-0.5,0.6-0.8,0.9-0.3l24.7,30.9c0.7,0.9,1.8,1.5,3,1.5h9.3c1,0,1.8-0.8,1.8-1.9V1.9C139.6,0.8,138.7,0,137.7,0"/>
<path fill="#043540" d="M419.2,55.3c0,0-0.1,0-0.1,0c-0.5,0-0.9-0.3-0.9-0.8c-0.1-0.5,0.3-1,0.8-1c11.5-1.6,20.1-11.6,20.1-23.2
	c0-12.2-9.4-22.3-21.3-23.4c-0.3,0.9-1.1,1.5-2.1,1.5c-1,0-1.8-0.6-2.1-1.5c-11.9,1.1-21.3,11.1-21.3,23.4
	c0,11.5,8.2,21.2,19.4,23.1c0.5,0.1,0.8,0.6,0.8,1.1c-0.1,0.5-0.6,0.8-1.1,0.8c-12.1-2.1-20.9-12.6-20.9-25
	c0-13.3,10.3-24.3,23.4-25.3c0.4-0.6,1.1-1.1,1.9-1.1c0.8,0,1.5,0.4,1.9,1.1c13,1,23.4,11.9,23.4,25.3
	C440.9,42.8,431.5,53.6,419.2,55.3 M399.2,30.1c0-9.1,7.3-16.4,16.3-16.4c9.2,0,16.3,7.3,16.3,16.4c0,9.1-7.1,16.4-16.3,16.4
	C406.5,46.4,399.2,39.2,399.2,30.1 M415.5-1.2c-17.3,0-31.8,14-31.8,31.2c0,17.2,14.5,31.2,31.8,31.2c17.5,0,31.8-14,31.8-31.2
	C447.4,12.9,433.1-1.2,415.5-1.2"/>
<path fill="#043540" d="M253.2,8.7h-23.2c-0.5,0-0.9-0.4-0.9-0.9s0.4-0.9,0.9-0.9h23.2c0.5,0,0.9,0.4,0.9,0.9S253.7,8.7,253.2,8.7
	 M229.9,29.1H246c0.3-0.8,1.1-1.4,2.1-1.4c1.2,0,2.2,1,2.2,2.2c0,1.2-1,2.2-2.2,2.2c-0.8,0-1.6-0.5-1.9-1.2h-16.2
	c-0.5,0-0.9-0.4-0.9-0.9C229,29.6,229.4,29.1,229.9,29.1 M222,53.3c0,0.5-0.4,0.9-0.9,0.9c-0.5,0-0.9-0.4-0.9-0.9V7.6
	c0-0.5,0.4-0.9,0.9-0.9c0.5,0,0.9,0.4,0.9,0.9V53.3z M229.9,52.2h23.2c0.5,0,0.9,0.4,0.9,0.9s-0.4,0.9-0.9,0.9h-23.2
	c-0.5,0-0.9-0.4-0.9-0.9S229.4,52.2,229.9,52.2 M257.4,0h-42.4c-1,0-1.8,0.8-1.8,1.9v56.5c0,1,0.8,1.9,1.8,1.9h42.4
	c1,0,1.8-0.8,1.8-1.9V47.1c0-1-0.8-1.9-1.8-1.9h-27.3c-0.8,0-1.5-0.7-1.5-1.5v-4.6c0-0.8,0.7-1.5,1.5-1.5H252c1,0,1.8-0.8,1.8-1.9
	V25.5c0-1-0.8-1.9-1.8-1.9h-21.8c-0.8,0-1.5-0.7-1.5-1.5v-5.6c0-0.8,0.7-1.5,1.5-1.5h27.3c1,0,1.8-0.8,1.8-1.9V1.9
	C259.3,0.8,258.4,0,257.4,0"/>
<path fill="#043540" d="M491.9,54c-0.2,0.1-0.3,0.2-0.5,0.2c-0.3,0-0.6-0.1-0.8-0.4L459.3,8.1c-0.3-0.4-0.2-1,0.2-1.3
	c0.4-0.3,1-0.2,1.3,0.2l31.3,45.6C492.4,53.1,492.3,53.7,491.9,54 M470.8,38.5C470.8,38.5,470.8,38.5,470.8,38.5l-10.5,15.2
	c-0.2,0.3-0.5,0.4-0.8,0.4c-0.2,0-0.4-0.1-0.5-0.2c-0.4-0.3-0.5-0.9-0.2-1.3l10.3-15c-0.3-0.4-0.5-0.9-0.5-1.4c0-1.2,1-2.2,2.2-2.2
	c1.2,0,2.2,1,2.2,2.2C473,37.5,472,38.5,470.8,38.5 M478.9,23.2l11.4-16.1c0.3-0.4,0.9-0.5,1.3-0.2c0.4,0.3,0.5,0.9,0.2,1.3
	l-11.4,16.1c-0.2,0.3-0.5,0.4-0.8,0.4c-0.2,0-0.4-0.1-0.5-0.2C478.7,24.2,478.6,23.6,478.9,23.2 M503.9,58.6l-18.7-27.4
	c-0.5-0.8-0.5-1.9,0-2.6l18.3-27.1c0.4-0.7-0.1-1.5-0.8-1.5h-14.5c-1.2,0-2.2,0.6-2.9,1.5L476,15.2c-0.4,0.6-1.3,0.6-1.7-0.1
	l-9.2-13.6c-0.7-0.9-1.8-1.5-2.9-1.5h-14.5c-0.8,0-1.2,0.8-0.8,1.5l18.3,27.1c0.5,0.8,0.5,1.9,0,2.6l-18.7,27.4
	c-0.5,0.7,0,1.5,0.8,1.5h15c1.2,0,2.2-0.6,2.8-1.5l9.2-13.7c0.4-0.6,1.3-0.6,1.7,0l9.3,13.7c0.6,0.9,1.7,1.5,2.8,1.5h15
	C503.9,60.2,504.4,59.3,503.9,58.6"/>
<path fill="#043540" d="M164.9,43.7V16.5c0-0.8,0.7-1.5,1.5-1.5h9.8c9.2,0,14,6.1,14,15.1c0,9-4.8,15.2-14,15.2h-9.8
	C165.6,45.3,164.9,44.6,164.9,43.7 M179.5,54h-14.1c-0.5,0-0.9-0.4-0.9-0.9s0.4-0.9,0.9-0.9h14.1c9.8,0,17.5-12.1,17.5-22.4
	c0-11.8-8.2-21.1-18.7-21.1h-12.9c-0.5,0-0.9-0.4-0.9-0.9s0.4-0.9,0.9-0.9h12.9c11.5,0,20.6,10.1,20.6,22.9
	C198.8,43.7,188.6,54,179.5,54 M158.1,9.7c0,0.1,0.1,0.2,0.1,0.3v43.2c0,0.5-0.4,0.9-0.9,0.9c-0.5,0-0.9-0.4-0.9-0.9V10
	c0-0.1,0-0.2,0.1-0.3c-0.8-0.3-1.3-1.1-1.3-2c0-1.2,1-2.2,2.2-2.2c1.2,0,2.2,1,2.2,2.2C159.4,8.6,158.9,9.3,158.1,9.7 M177.4,0h-26
	c-1,0-1.8,0.8-1.8,1.9v56.5c0,1,0.8,1.9,1.8,1.9h26c18.8,0,28.4-13.7,28.4-30.1C205.8,13.7,196.2,0,177.4,0"/>
<path fill="#043540" d="M342.6,44.7v-7.5c0-0.8,0.7-1.5,1.5-1.5H358c4.2,0,5.7,2.1,5.7,5.2c0,3.2-1.5,5.4-5.7,5.4h-13.8
	C343.3,46.2,342.6,45.5,342.6,44.7 M368.7,51.4c-2,1.7-4.8,2.7-7.5,2.7h-15.7c-0.4,0.8-1.1,1.3-2,1.3c-1.2,0-2.2-1-2.2-2.2
	c0-1.2,1-2.2,2.2-2.2c0.9,0,1.7,0.5,2,1.3h15.7c4.5,0,9.4-3.1,9.4-9.8c0-7.6-7.2-11.8-12.2-11.8h-14.9c-0.5,0-0.9-0.4-0.9-0.9
	c0-0.5,0.4-0.9,0.9-0.9h14.9c3.2,0,6.6,1.3,9.3,3.5c3.1,2.6,4.8,6.2,4.8,10.2C372.5,47.2,370.4,50,368.7,51.4 M335.9,53.2
	c0,0.5-0.4,0.9-0.9,0.9c-0.5,0-0.9-0.4-0.9-0.9V7.7c0-0.5,0.4-0.9,0.9-0.9c0.5,0,0.9,0.4,0.9,0.9V53.2z M361,18.8
	c0,2.9-1.5,4.8-5.7,4.8h-11.2c-0.8,0-1.5-0.7-1.5-1.5v-6.5c0-0.8,0.7-1.5,1.5-1.5h12C359.3,14,361,16,361,18.8 M342.8,6.8h14.9
	c7.1,0,11.5,4.1,11.5,10.6c0,5.4-3.6,8.6-3.7,8.7c-0.2,0.2-0.4,0.2-0.6,0.2c-0.3,0-0.5-0.1-0.7-0.3c-0.3-0.4-0.3-1,0.1-1.3
	c0,0,3.1-2.7,3.1-7.3c0-5.5-3.6-8.7-9.6-8.7h-14.9c-0.5,0-0.9-0.4-0.9-0.9C341.9,7.2,342.3,6.8,342.8,6.8 M370.6,29.9
	c-0.6-0.3-0.6-1-0.1-1.4c3.7-2.5,6-6.4,6-11.9C376.5,7,369.9,0,357,0h-28c-1,0-1.8,0.8-1.8,1.9v56.5c0,1,0.8,1.9,1.8,1.9h30.6
	c12.1,0,19.5-7,19.5-17C379.2,36.7,375.9,32.3,370.6,29.9"/>
<path fill="#043540" d="M67.7,9.7c0,0.1,0,0.2,0,0.3v43.2c0,0.5-0.4,0.9-0.9,0.9c-0.5,0-0.9-0.4-0.9-0.9V10c0-0.1,0-0.2,0-0.3
	c-0.8-0.3-1.3-1.1-1.3-2c0-1.2,1-2.2,2.2-2.2c1.2,0,2.2,1,2.2,2.2C69,8.6,68.5,9.4,67.7,9.7 M72.6,0H60.9c-1,0-1.8,0.8-1.8,1.9v56.5
	c0,1,0.8,1.9,1.8,1.9h11.7c1,0,1.8-0.8,1.8-1.9V1.9C74.4,0.8,73.6,0,72.6,0"/>
<path fill="#043540" d="M46.2,8.7h-19v42.5c0.8,0.4,1.3,1.1,1.3,2c0,1.2-1,2.2-2.2,2.2c-1.2,0-2.2-1-2.2-2.2c0-0.9,0.5-1.7,1.3-2
	V8.7H5.1c-0.5,0-0.9-0.4-0.9-0.9s0.4-0.9,0.9-0.9h41.1c0.5,0,0.9,0.4,0.9,0.9S46.7,8.7,46.2,8.7 M50.9,0H1.8C0.8,0,0,0.8,0,1.9v11.3
	c0,1,0.8,1.9,1.8,1.9h15.3c0.8,0,1.5,0.7,1.5,1.5v41.8c0,1,0.8,1.9,1.8,1.9h11.7c1,0,1.8-0.8,1.8-1.9V16.5c0-0.8,0.7-1.5,1.5-1.5
	h15.3c1,0,1.8-0.8,1.8-1.9V1.9C52.8,0.8,51.9,0,50.9,0"/>
<path fill="#F28778" d="M184.7,81.8c-0.2,0-0.3-0.2-0.3-0.3v-2.2c0-0.2,0.2-0.3,0.3-0.3h7c0.2,0,0.3,0.2,0.3,0.3v1.6
	c0,0.2-0.1,0.5-0.2,0.7l-4.1,8.3c-0.1,0.2-0.3,0.3-0.5,0.3h-2.6c-0.2,0-0.3-0.2-0.2-0.3l4.1-7.8c0.1-0.1,0-0.3-0.2-0.3H184.7z"/>
<path fill="#F28778" d="M41.9,87.3c0.2,0,0.3,0.2,0.3,0.3v2.2c0,0.2-0.2,0.3-0.3,0.3h-7.5c-0.2,0-0.3-0.2-0.3-0.3v-1.5
	c0-0.2,0.1-0.4,0.3-0.6l3.7-3.5c0.9-0.9,1.3-1.3,1.3-1.9c0-0.6-0.4-1-1.1-1c-0.7,0-1.3,0.4-1.3,1.3c0,0.3-0.1,0.3-0.2,0.3h-2.3
	c-0.2,0-0.3-0.1-0.3-0.3c0-2.8,2.2-4.1,4.1-4.1c2.1,0,4,1.4,4,3.8c0,1.9-1.4,3.1-2.3,4l-0.7,0.7c-0.1,0.1,0,0.2,0.1,0.2H41.9z"/>
<path fill="#F28778" d="M51.2,87.3c0.2,0,0.3,0.2,0.3,0.3v2.2c0,0.2-0.2,0.3-0.3,0.3h-7.5c-0.2,0-0.3-0.2-0.3-0.3v-1.5
	c0-0.2,0.1-0.4,0.3-0.6l3.7-3.5c0.9-0.9,1.3-1.3,1.3-1.9c0-0.6-0.4-1-1.1-1c-0.7,0-1.3,0.4-1.3,1.3c0,0.3-0.1,0.3-0.2,0.3h-2.3
	c-0.2,0-0.3-0.1-0.3-0.3c0-2.8,2.2-4.1,4.1-4.1c2.1,0,4,1.4,4,3.8c0,1.9-1.4,3.1-2.3,4l-0.7,0.7c-0.1,0.1,0,0.2,0.1,0.2H51.2z"/>
<path fill="#F28778" d="M116,79.3c0-0.2,0.2-0.3,0.3-0.3h2.2c0.2,0,0.3,0.2,0.3,0.3V86c0,3-2,4.4-4.3,4.4c-2.3,0-4.3-1.4-4.3-4.4
	v-0.6c0-0.2,0.2-0.3,0.3-0.3h2.2c0.2,0,0.3,0.2,0.3,0.3V86c0,1.3,0.7,1.7,1.4,1.7c0.8,0,1.4-0.3,1.4-1.7V79.3z"/>
<path fill="#F28778" d="M127.9,79.3c0-0.2,0.2-0.3,0.3-0.3h2.2c0.2,0,0.3,0.2,0.3,0.3v6c0,2.9-1.8,5.2-5.2,5.2
	c-3.4,0-5.2-2.2-5.2-5.2v-6c0-0.2,0.2-0.3,0.3-0.3h2.2c0.2,0,0.3,0.2,0.3,0.3v5.8c0,1.6,0.8,2.5,2.3,2.5c1.5,0,2.3-0.9,2.3-2.5V79.3
	z"/>
<path fill="#F28778" d="M135.2,89.9c0,0.2-0.2,0.3-0.3,0.3h-2.2c-0.2,0-0.3-0.2-0.3-0.3V79.3c0-0.2,0.2-0.3,0.3-0.3h1.7
	c0.2,0,0.4,0.1,0.6,0.3l4.6,5.8c0.1,0.1,0.2,0,0.2-0.1v-5.7c0-0.2,0.2-0.3,0.3-0.3h2.2c0.2,0,0.3,0.2,0.3,0.3v10.6
	c0,0.2-0.2,0.3-0.3,0.3h-1.7c-0.2,0-0.4-0.1-0.6-0.3l-4.6-5.8c-0.1-0.1-0.2,0-0.2,0.1V89.9z"/>
<path fill="#F28778" d="M144.8,90.2c-0.2,0-0.3-0.2-0.3-0.3V79.3c0-0.2,0.2-0.3,0.3-0.3h8c0.2,0,0.3,0.2,0.3,0.3v2.1
	c0,0.2-0.2,0.3-0.3,0.3h-5.1c-0.2,0-0.3,0.1-0.3,0.3v1c0,0.2,0.1,0.3,0.3,0.3h4.1c0.2,0,0.3,0.2,0.3,0.3v1.9c0,0.2-0.2,0.3-0.3,0.3
	h-4.1c-0.2,0-0.3,0.1-0.3,0.3v0.9c0,0.2,0.1,0.3,0.3,0.3h5.1c0.2,0,0.3,0.2,0.3,0.3v2.1c0,0.2-0.2,0.3-0.3,0.3H144.8z"/>
<path fill="#F28778" d="M166,87.3c0.2,0,0.3,0.2,0.3,0.3v2.2c0,0.2-0.2,0.3-0.3,0.3h-7.5c-0.2,0-0.3-0.2-0.3-0.3v-1.5
	c0-0.2,0.1-0.4,0.3-0.6l3.7-3.5c0.9-0.9,1.3-1.3,1.3-1.9c0-0.6-0.4-1-1.1-1c-0.7,0-1.3,0.4-1.3,1.3c0,0.3-0.1,0.3-0.2,0.3h-2.3
	c-0.2,0-0.3-0.1-0.3-0.3c0-2.8,2.2-4.1,4.1-4.1c2.1,0,4,1.4,4,3.8c0,1.9-1.4,3.1-2.3,4l-0.7,0.7c-0.1,0.1,0,0.2,0.1,0.2H166z"/>
<path fill="#F28778" d="M170.4,84.6c0,1.9,0.8,3.1,1.9,3.1c1.1,0,1.9-1.2,1.9-3.1c0-1.9-0.8-3.1-1.9-3.1
	C171.2,81.5,170.4,82.7,170.4,84.6 M167.5,84.6c0-3,1.6-5.9,4.7-5.9c3.1,0,4.8,2.9,4.8,5.9c0,3-1.6,5.9-4.8,5.9
	C169.1,90.5,167.5,87.6,167.5,84.6"/>
<path fill="#F28778" d="M178.2,82.7c-0.2,0.1-0.3-0.1-0.3-0.2v-2.3c0-0.2,0.1-0.4,0.3-0.5l1.8-0.6c0.2-0.1,0.5-0.1,0.7-0.1h1.2
	c0.2,0,0.3,0.2,0.3,0.3v10.6c0,0.2-0.2,0.3-0.3,0.3h-2.2c-0.2,0-0.3-0.2-0.3-0.3v-7.3c0-0.1-0.1-0.2-0.3-0.2L178.2,82.7z"/>
<path fill="#043540" d="M204.8,76.6c0.1-0.2,0.3-0.3,0.5-0.3h2.4c0.2,0,0.3,0.2,0.2,0.3l-8.1,15.9c-0.1,0.2-0.3,0.3-0.5,0.3H197
	c-0.2,0-0.3-0.2-0.2-0.3L204.8,76.6z"/>
<path fill="#8CC7BA" d="M215.5,84.6c0,1.7,1.4,3.1,3.1,3.1c1.7,0,3.1-1.4,3.1-3.1c0-1.7-1.3-3.1-3.1-3.1
	C216.8,81.5,215.5,82.9,215.5,84.6 M212.6,84.6c0-3.2,2.7-5.9,6-5.9c3.3,0,6,2.6,6,5.9c0,3.2-2.7,5.9-6,5.9
	C215.3,90.5,212.6,87.8,212.6,84.6"/>
<path fill="#8CC7BA" d="M230.7,81.7h-1.8c-0.2,0-0.3,0.1-0.3,0.3v5.1c0,0.2,0.1,0.3,0.3,0.3h1.8c1.7,0,2.6-1.2,2.6-2.9
	C233.4,82.9,232.5,81.7,230.7,81.7 M226.1,90.2c-0.2,0-0.3-0.2-0.3-0.3V79.3c0-0.2,0.2-0.3,0.3-0.3h4.9c3.5,0,5.3,2.6,5.3,5.7
	c0,3.1-1.8,5.7-5.3,5.7H226.1z"/>
<path fill="#8CC7BA" d="M237.9,90.2c-0.2,0-0.3-0.2-0.3-0.3V79.3c0-0.2,0.2-0.3,0.3-0.3h8c0.2,0,0.3,0.2,0.3,0.3v2.1
	c0,0.2-0.2,0.3-0.3,0.3h-5.1c-0.2,0-0.3,0.1-0.3,0.3v1c0,0.2,0.1,0.3,0.3,0.3h4.1c0.2,0,0.3,0.2,0.3,0.3v1.9c0,0.2-0.2,0.3-0.3,0.3
	h-4.1c-0.2,0-0.3,0.1-0.3,0.3v0.9c0,0.2,0.1,0.3,0.3,0.3h5.1c0.2,0,0.3,0.2,0.3,0.3v2.1c0,0.2-0.2,0.3-0.3,0.3H237.9z"/>
<path fill="#8CC7BA" d="M250.5,89.9c0,0.2-0.2,0.3-0.3,0.3H248c-0.2,0-0.3-0.2-0.3-0.3V79.3c0-0.2,0.2-0.3,0.3-0.3h1.7
	c0.2,0,0.4,0.1,0.6,0.3l4.6,5.8c0.1,0.1,0.2,0,0.2-0.1v-5.7c0-0.2,0.2-0.3,0.3-0.3h2.2c0.2,0,0.3,0.2,0.3,0.3v10.6
	c0,0.2-0.2,0.3-0.3,0.3h-1.7c-0.2,0-0.4-0.1-0.6-0.3l-4.6-5.8c-0.1-0.1-0.2,0-0.2,0.1V89.9z"/>
<path fill="#8CC7BA" d="M259.3,87.2c0-0.2,0.2-0.4,0.4-0.4h2c0.3,0,0.4,0.1,0.6,0.4c0.2,0.4,0.8,0.7,1.8,0.7c1.1,0,1.4-0.4,1.4-0.7
	c0-0.5-0.6-0.8-1.9-1.2c-1.8-0.6-4.1-1.5-4.1-3.8c0-2.2,1.8-3.5,4.4-3.5c2.6,0,4.5,1.4,4.6,3.4c0,0.2-0.2,0.4-0.4,0.4h-2
	c-0.3,0-0.4-0.1-0.5-0.4c-0.2-0.5-0.7-0.9-1.7-0.9c-1,0-1.4,0.4-1.4,0.8c0,0.5,0.5,0.7,1.9,1.1c1.6,0.5,4.2,1.5,4.2,4
	c0,2.2-1.9,3.4-4.5,3.4C261.5,90.5,259.5,89.3,259.3,87.2"/>
<path fill="#8CC7BA" d="M270.2,90.2c-0.2,0-0.3-0.2-0.3-0.3V79.3c0-0.2,0.2-0.3,0.3-0.3h8c0.2,0,0.3,0.2,0.3,0.3v2.1
	c0,0.2-0.2,0.3-0.3,0.3H273c-0.2,0-0.3,0.1-0.3,0.3v1c0,0.2,0.1,0.3,0.3,0.3h4.1c0.2,0,0.3,0.2,0.3,0.3v1.9c0,0.2-0.2,0.3-0.3,0.3
	H273c-0.2,0-0.3,0.1-0.3,0.3v0.9c0,0.2,0.1,0.3,0.3,0.3h5.1c0.2,0,0.3,0.2,0.3,0.3v2.1c0,0.2-0.2,0.3-0.3,0.3H270.2z"/>
<path fill="#043540" d="M291.3,76.6c0.1-0.2,0.3-0.3,0.5-0.3h2.4c0.2,0,0.3,0.2,0.2,0.3l-8.1,15.9c-0.1,0.2-0.3,0.3-0.5,0.3h-2.4
	c-0.2,0-0.3-0.2-0.2-0.3L291.3,76.6z"/>
<path fill="#FFD961" d="M298.7,81.7c-0.2,0-0.3-0.2-0.3-0.3v-2.1c0-0.2,0.2-0.3,0.3-0.3h9.2c0.2,0,0.3,0.2,0.3,0.3v2.1
	c0,0.2-0.2,0.3-0.3,0.3h-2.9c-0.2,0-0.3,0.1-0.3,0.3v7.9c0,0.2-0.2,0.3-0.3,0.3h-2.2c-0.2,0-0.3-0.2-0.3-0.3V82
	c0-0.2-0.1-0.3-0.3-0.3H298.7z"/>
<path fill="#FFD961" d="M316.7,79.3c0-0.2,0.2-0.3,0.3-0.3h2.2c0.2,0,0.3,0.2,0.3,0.3v6c0,2.9-1.8,5.2-5.2,5.2
	c-3.4,0-5.2-2.2-5.2-5.2v-6c0-0.2,0.2-0.3,0.3-0.3h2.2c0.2,0,0.3,0.2,0.3,0.3v5.8c0,1.6,0.8,2.5,2.3,2.5c1.5,0,2.3-0.9,2.3-2.5V79.3
	z"/>
<path fill="#FFD961" d="M320.7,87.2c0-0.2,0.2-0.4,0.4-0.4h2c0.3,0,0.4,0.1,0.6,0.4c0.2,0.4,0.8,0.7,1.8,0.7c1.1,0,1.4-0.4,1.4-0.7
	c0-0.5-0.6-0.8-1.9-1.2c-1.8-0.6-4.1-1.5-4.1-3.8c0-2.2,1.8-3.5,4.4-3.5c2.6,0,4.5,1.4,4.6,3.4c0,0.2-0.2,0.4-0.4,0.4h-2
	c-0.3,0-0.4-0.1-0.5-0.4c-0.2-0.5-0.7-0.9-1.7-0.9c-1,0-1.4,0.4-1.4,0.8c0,0.5,0.5,0.7,1.9,1.1c1.6,0.5,4.2,1.5,4.2,4
	c0,2.2-1.9,3.4-4.5,3.4C322.9,90.5,320.9,89.3,320.7,87.2"/>
<path fill="#FFD961" d="M331.2,79.3c0-0.2,0.2-0.3,0.3-0.3h2.2c0.2,0,0.3,0.2,0.3,0.3v10.6c0,0.2-0.2,0.3-0.3,0.3h-2.2
	c-0.2,0-0.3-0.2-0.3-0.3V79.3z"/>
<path fill="#FFD961" d="M338.7,89.9c0,0.2-0.2,0.3-0.3,0.3h-2.2c-0.2,0-0.3-0.2-0.3-0.3V79.3c0-0.2,0.2-0.3,0.3-0.3h1.8
	c0.2,0,0.4,0.1,0.6,0.3l4.6,5.8c0.1,0.1,0.2,0,0.2-0.1v-5.7c0-0.2,0.2-0.3,0.3-0.3h2.2c0.2,0,0.3,0.2,0.3,0.3v10.6
	c0,0.2-0.2,0.3-0.3,0.3h-1.7c-0.2,0-0.4-0.1-0.6-0.3l-4.6-5.8c-0.1-0.1-0.2,0-0.2,0.1V89.9z"/>
<path fill="#FFD961" d="M353,81.7h-1.8c-0.2,0-0.3,0.1-0.3,0.3v5.1c0,0.2,0.1,0.3,0.3,0.3h1.8c1.7,0,2.6-1.2,2.6-2.9
	C355.6,82.9,354.7,81.7,353,81.7 M348.3,90.2c-0.2,0-0.3-0.2-0.3-0.3V79.3c0-0.2,0.2-0.3,0.3-0.3h4.9c3.5,0,5.3,2.6,5.3,5.7
	c0,3.1-1.8,5.7-5.3,5.7H348.3z"/>
<path fill="#FFD961" d="M365.2,86c0.1,0,0.2-0.1,0.2-0.3l-1-2.8c0-0.1-0.2-0.1-0.2,0l-1,2.8c0,0.1,0,0.3,0.2,0.3H365.2z M362.6,79.2
	c0.1-0.2,0.3-0.3,0.5-0.3h2.2c0.2,0,0.4,0.1,0.5,0.3l4.3,10.7c0.1,0.1,0,0.3-0.2,0.3h-2.5c-0.2,0-0.4-0.1-0.5-0.3l-0.4-1.1
	c-0.1-0.2-0.2-0.3-0.4-0.3h-3.9c-0.2,0-0.3,0.1-0.4,0.3l-0.4,1.1c-0.1,0.2-0.3,0.3-0.5,0.3h-2.5c-0.2,0-0.3-0.2-0.2-0.3L362.6,79.2z
	"/>
<path fill="#FFD961" d="M377.1,86c0.1,0,0.2-0.1,0.2-0.3l-1-2.8c0-0.1-0.2-0.1-0.2,0l-1,2.8c0,0.1,0,0.3,0.2,0.3H377.1z M374.6,79.2
	c0.1-0.2,0.3-0.3,0.5-0.3h2.2c0.2,0,0.4,0.1,0.5,0.3l4.3,10.7c0.1,0.1,0,0.3-0.2,0.3h-2.5c-0.2,0-0.4-0.1-0.5-0.3l-0.4-1.1
	c-0.1-0.2-0.2-0.3-0.4-0.3h-3.9c-0.2,0-0.3,0.1-0.4,0.3l-0.4,1.1c-0.1,0.2-0.3,0.3-0.5,0.3h-2.5c-0.2,0-0.3-0.2-0.2-0.3L374.6,79.2z
	"/>
<path fill="#FFD961" d="M388.4,81.6h-2.2c-0.2,0-0.3,0.1-0.3,0.3v2.4c0,0.2,0.1,0.3,0.3,0.3h2.2c1.2,0,1.6-0.7,1.6-1.5
	C390,82.2,389.6,81.6,388.4,81.6 M383,79.3c0-0.2,0.2-0.3,0.3-0.3h5.2c2.9,0,4.2,1.9,4.2,4.1c0,1.5-0.6,2.9-2,3.6
	c-0.1,0.1-0.2,0.2-0.1,0.4l2.1,2.9c0.1,0.1,0,0.3-0.1,0.3h-2.8c-0.2,0-0.4-0.1-0.5-0.3l-1.8-2.5c-0.1-0.1-0.3-0.2-0.5-0.2h-0.9
	c-0.2,0-0.3,0.1-0.3,0.3v2.4c0,0.2-0.2,0.3-0.3,0.3h-2.2c-0.2,0-0.3-0.2-0.3-0.3V79.3z"/>
<path fill="#FFD961" d="M393.7,87.2c0-0.2,0.2-0.4,0.4-0.4h2c0.3,0,0.4,0.1,0.6,0.4c0.2,0.4,0.8,0.7,1.8,0.7c1.1,0,1.4-0.4,1.4-0.7
	c0-0.5-0.6-0.8-1.9-1.2c-1.8-0.6-4.1-1.5-4.1-3.8c0-2.2,1.8-3.5,4.4-3.5c2.6,0,4.5,1.4,4.6,3.4c0,0.2-0.2,0.4-0.4,0.4h-2
	c-0.3,0-0.4-0.1-0.5-0.4c-0.2-0.5-0.7-0.9-1.7-0.9c-1,0-1.4,0.4-1.4,0.8c0,0.5,0.5,0.7,1.9,1.1c1.6,0.5,4.2,1.5,4.2,4
	c0,2.2-1.9,3.4-4.5,3.4C395.9,90.5,393.9,89.3,393.7,87.2"/>
<path fill="#FFD961" d="M403.8,87.2c0-0.2,0.2-0.4,0.4-0.4h2c0.3,0,0.4,0.1,0.6,0.4c0.2,0.4,0.8,0.7,1.8,0.7c1.1,0,1.4-0.4,1.4-0.7
	c0-0.5-0.6-0.8-1.9-1.2c-1.8-0.6-4.1-1.5-4.1-3.8c0-2.2,1.8-3.5,4.4-3.5c2.6,0,4.5,1.4,4.6,3.4c0,0.2-0.2,0.4-0.4,0.4h-2
	c-0.3,0-0.4-0.1-0.5-0.4c-0.2-0.5-0.7-0.9-1.7-0.9c-1,0-1.4,0.4-1.4,0.8c0,0.5,0.5,0.7,1.9,1.1c1.6,0.5,4.2,1.5,4.2,4
	c0,2.2-1.9,3.4-4.5,3.4C406,90.5,404,89.3,403.8,87.2"/>
<path fill="#FFD961" d="M414.7,90.2c-0.2,0-0.3-0.2-0.3-0.3V79.3c0-0.2,0.2-0.3,0.3-0.3h2.2c0.2,0,0.3,0.2,0.3,0.3v3.3
	c0,0.1,0.1,0.1,0.2,0.1l3.1-3.4c0.1-0.2,0.4-0.3,0.6-0.3h3c0.1,0,0.2,0.2,0.1,0.3l-4,4.4c-0.1,0.1-0.1,0.3,0,0.4l4.3,5.9
	c0.1,0.1,0,0.3-0.1,0.3h-2.9c-0.2,0-0.4-0.1-0.5-0.3l-2.7-3.8c-0.1-0.1-0.3-0.1-0.4,0l-0.4,0.4c-0.1,0.1-0.2,0.3-0.2,0.5v2.8
	c0,0.2-0.2,0.3-0.3,0.3H414.7z"/>
<path fill="#FFD961" d="M426.8,84.6c0,1.7,1.4,3.1,3.1,3.1c1.7,0,3.1-1.4,3.1-3.1c0-1.7-1.3-3.1-3.1-3.1
	C428.2,81.5,426.8,82.9,426.8,84.6 M423.9,84.6c0-3.2,2.7-5.9,6-5.9c3.3,0,6,2.6,6,5.9c0,3.2-2.7,5.9-6,5.9
	C426.6,90.5,423.9,87.8,423.9,84.6"/>
<path fill="#FFD961" d="M443,89.9c-0.1,0.2-0.3,0.3-0.5,0.3h-2.2c-0.2,0-0.4-0.1-0.5-0.3l-4.3-10.7c-0.1-0.1,0-0.3,0.2-0.3h2.5
	c0.2,0,0.4,0.1,0.5,0.3l2.6,7c0,0.1,0.2,0.1,0.2,0l2.6-7c0.1-0.2,0.3-0.3,0.5-0.3h2.5c0.2,0,0.3,0.2,0.2,0.3L443,89.9z"/>
<path fill="#FFD961" d="M448.6,90.2c-0.2,0-0.3-0.2-0.3-0.3V79.3c0-0.2,0.2-0.3,0.3-0.3h8c0.2,0,0.3,0.2,0.3,0.3v2.1
	c0,0.2-0.2,0.3-0.3,0.3h-5.1c-0.2,0-0.3,0.1-0.3,0.3v1c0,0.2,0.1,0.3,0.3,0.3h4.1c0.2,0,0.3,0.2,0.3,0.3v1.9c0,0.2-0.2,0.3-0.3,0.3
	h-4.1c-0.2,0-0.3,0.1-0.3,0.3v0.9c0,0.2,0.1,0.3,0.3,0.3h5.1c0.2,0,0.3,0.2,0.3,0.3v2.1c0,0.2-0.2,0.3-0.3,0.3H448.6z"/>
<path fill="#FFD961" d="M461.2,89.9c0,0.2-0.2,0.3-0.3,0.3h-2.2c-0.2,0-0.3-0.2-0.3-0.3V79.3c0-0.2,0.2-0.3,0.3-0.3h1.8
	c0.2,0,0.4,0.1,0.6,0.3l4.6,5.8c0.1,0.1,0.2,0,0.2-0.1v-5.7c0-0.2,0.2-0.3,0.3-0.3h2.2c0.2,0,0.3,0.2,0.3,0.3v10.6
	c0,0.2-0.2,0.3-0.3,0.3h-1.7c-0.2,0-0.4-0.1-0.6-0.3l-4.6-5.8c-0.1-0.1-0.2,0-0.2,0.1V89.9z"/>
<path fill="#F28778" d="M94.6,80.2c-0.1,0-0.2-0.1-0.2-0.2v-1.1c0-0.1,0.1-0.2,0.2-0.2h4.9c0.1,0,0.2,0.1,0.2,0.2V80
	c0,0.1-0.1,0.2-0.2,0.2H98c-0.1,0-0.2,0.1-0.2,0.2v4.1c0,0.1-0.1,0.2-0.2,0.2h-1.2c-0.1,0-0.2-0.1-0.2-0.2v-4.1
	c0-0.1-0.1-0.2-0.2-0.2H94.6z"/>
<path fill="#F28778" d="M104.2,78.9c0-0.1,0.1-0.2,0.2-0.2h1.2c0.1,0,0.2,0.1,0.2,0.2v5.6c0,0.1-0.1,0.2-0.2,0.2h-1.2
	c-0.1,0-0.2-0.1-0.2-0.2v-1.9c0-0.1-0.1-0.2-0.2-0.2h-2.1c-0.1,0-0.2,0.1-0.2,0.2v1.9c0,0.1-0.1,0.2-0.2,0.2h-1.2
	c-0.1,0-0.2-0.1-0.2-0.2v-5.6c0-0.1,0.1-0.2,0.2-0.2h1.2c0.1,0,0.2,0.1,0.2,0.2v2c0,0.1,0.1,0.2,0.2,0.2h2.1c0.1,0,0.2-0.1,0.2-0.2
	V78.9z"/>
<path fill="#F28778" d="M83.8,87.3c0.2,0,0.3,0.2,0.3,0.3v2.2c0,0.2-0.2,0.3-0.3,0.3h-7.5c-0.2,0-0.3-0.2-0.3-0.3v-1.5
	c0-0.2,0.1-0.4,0.3-0.6l3.7-3.5c0.9-0.9,1.3-1.3,1.3-1.9c0-0.6-0.4-1-1.1-1c-0.7,0-1.3,0.4-1.3,1.3c0,0.3-0.1,0.3-0.2,0.3h-2.3
	c-0.2,0-0.3-0.1-0.3-0.3c0-2.8,2.2-4.1,4.1-4.1c2.1,0,4,1.4,4,3.8c0,1.9-1.4,3.1-2.3,4l-0.7,0.7c-0.1,0.1,0,0.2,0.1,0.2H83.8z"/>
<path fill="#F28778" d="M93,89.9c0,0.2-0.2,0.3-0.3,0.3h-2.1c-0.2,0-0.3-0.2-0.3-0.3v-1.3c0-0.2-0.1-0.3-0.3-0.3h-4.5
	c-0.2,0-0.3-0.2-0.3-0.3v-1.6c0-0.2,0.1-0.5,0.2-0.7l3.6-6.5c0.1-0.2,0.3-0.3,0.5-0.3h2.5c0.2,0,0.3,0.2,0.2,0.3l-3.4,6.1
	c-0.1,0.1,0,0.2,0.1,0.2h1.2c0.2,0,0.3-0.1,0.3-0.3v-1.5c0-0.2,0.2-0.3,0.3-0.3h2.1c0.2,0,0.3,0.2,0.3,0.3v1.5
	c0,0.2,0.1,0.3,0.3,0.3h0.5c0.2,0,0.3,0.2,0.3,0.3v2c0,0.2-0.2,0.3-0.3,0.3h-0.5c-0.2,0-0.3,0.1-0.3,0.3V89.9z"/>
<path fill="#F28778" d="M54.1,84.5c0,0.1-0.1,0.2-0.2,0.2h-1.2c-0.1,0-0.2-0.1-0.2-0.2v-5.6c0-0.1,0.1-0.2,0.2-0.2h0.9
	c0.1,0,0.2,0.1,0.3,0.1l2.4,3.1c0,0,0.1,0,0.1,0v-3c0-0.1,0.1-0.2,0.2-0.2h1.1c0.1,0,0.2,0.1,0.2,0.2v5.6c0,0.1-0.1,0.2-0.2,0.2H57
	c-0.1,0-0.2-0.1-0.3-0.1l-2.4-3.1c0,0-0.1,0-0.1,0V84.5z"/>
<path fill="#F28778" d="M61.5,80.2h-1c-0.1,0-0.2,0.1-0.2,0.2v2.7c0,0.1,0.1,0.2,0.2,0.2h1c0.9,0,1.4-0.6,1.4-1.5
	S62.4,80.2,61.5,80.2 M59.1,84.7c-0.1,0-0.2-0.1-0.2-0.2v-5.6c0-0.1,0.1-0.2,0.2-0.2h2.6c1.9,0,2.8,1.4,2.8,3c0,1.6-1,3-2.8,3H59.1z
	"/>
</svg>
