<?xml version="1.0" encoding="utf-8"?>
<!-- Generator: Adobe Illustrator 20.1.0, SVG Export Plug-In . SVG Version: 6.00 Build 0)  -->
<svg version="1.1" id="Layer_1" xmlns="http://www.w3.org/2000/svg" xmlns:xlink="http://www.w3.org/1999/xlink" x="0px" y="0px"
	 viewBox="0 0 200 161.7" enable-background="new 0 0 200 161.7" xml:space="preserve">
<path fill="#FDF9F4" d="M49.6,160.6c-0.7,0-1.2-0.5-1.2-1.2v-2.5c0-1.9,3.4-1.2,3.4-3.4V129l-7.1,30.4c-0.2,0.8-0.5,1.2-1.2,1.2
	h-3.7c-0.7,0-1-0.5-1.2-1.2l-7-30.4v24.4c0,2.2,3.4,1.5,3.4,3.4v2.5c0,0.7-0.5,1.2-1.2,1.2h-11c-0.7,0-1.2-0.5-1.2-1.2v-2.5
	c0-1.9,3.4-1.2,3.4-3.4v-26.5c0-2.2-3.4-1.5-3.4-3.4V121c0-0.7,0.5-1.2,1.2-1.2h14.3c0.6,0,1.1,0.4,1.2,1l4,20.3l4.5-20.2
	c0.2-0.8,0.6-1.2,1.3-1.2h14c0.7,0,1.2,0.5,1.2,1.2v2.5c0,1.9-3.4,1.2-3.4,3.4v26.5c0,2.2,3.4,1.5,3.4,3.4v2.5
	c0,0.7-0.5,1.2-1.2,1.2H49.6z"/>
<path fill="#FDF9F4" d="M99.3,121v2.5c0,1.9-3.4,1.2-3.4,3.4v24.6c0,7.2-7.2,10.2-12.9,10.2c-5.5,0-13.6-3-13.6-10.2v-24.6
	c0-2.2-3.4-1.5-3.4-3.4V121c0-0.7,0.5-1.2,1.2-1.2h13.4c0.7,0,1.2,0.5,1.2,1.2v2.5c0,1.9-3.4,1.2-3.4,3.4v24.6
	c0,1.7,1.6,3.9,5.1,3.9c3.4,0,5.1-2.2,5.1-3.9v-24.6c0-2.2-3.4-1.5-3.4-3.4V121c0-0.7,0.5-1.2,1.2-1.2h11.8
	C98.8,119.8,99.3,120.3,99.3,121"/>
<path fill="#FDF9F4" d="M120.4,119.8h3.2c0.6,0,1.1,0.5,1.1,1.2v11.6c0,0.6-0.5,1.2-1.1,1.2h-4c-0.7,0-1.1-0.5-1.2-1.2
	c-0.3-2.9-1.5-7.3-5.2-7.3c-2.1,0-4.7,1-4.7,4.5c0,8.2,17.9,4.6,17.9,19c0,8.2-4,13.1-12.4,13.1c-3.6,0-6.4-1.6-6.7-2
	c-0.3-0.3-0.7-0.3-1,0s-0.7,0.8-1.2,0.8h-3.7c-0.6,0-1.1-0.5-1.1-1.2v-12.3c0-0.6,0.5-1.2,1.1-1.2h4.1c0.7,0,1.1,0.5,1.2,1.2
	c0.6,3.1,1.1,8.3,6.6,8.3c1.5,0,4.7-0.7,4.7-4.5c0-9.3-17.8-4-17.8-20.1c0-6.2,3.7-11.7,11.9-11.7c3.4,0,5.7,1.2,6.4,1.6
	c0.3,0.2,0.7,0.1,0.9-0.2C119.7,120,119.8,119.8,120.4,119.8"/>
<path fill="#FDF9F4" d="M127.1,159.3v-2.5c0-1.9,3.4-1.2,3.4-3.4v-26.5c0-2.2-3.4-1.5-3.4-3.4V121c0-0.7,0.5-1.2,1.2-1.2H141
	c0.7,0,1.2,0.5,1.2,1.2v2.5c0,1.9-3.4,1.2-3.4,3.4v26.5c0,2.2,3.4,1.5,3.4,3.4v2.5c0,0.7-0.5,1.2-1.2,1.2h-12.7
	C127.6,160.6,127.1,160,127.1,159.3"/>
<path fill="#FDF9F4" d="M164.4,127c1.5-2-1.7-1.5-1.7-3.3V121c0-0.7,0.5-1.2,1.2-1.2h11.8c0.7,0,1.2,0.5,1.2,1.2v2.5
	c0,1.9-2.3,1.3-3.4,2.8l-8.2,10.4l10.4,17.4c1.2,1.9,2.8,0.8,2.8,2.7v2.5c0,0.7-0.5,1.2-1.2,1.2h-13.5c-0.7,0-1.2-0.5-1.2-1.2v-2.5
	c0-1.7,3.3-1.5,2.3-3.4l-5.2-9.5l-3.3,4.2v5.2c0,2.2,3.4,1.5,3.4,3.4v2.5c0,0.7-0.5,1.2-1.2,1.2h-12.7c-0.7,0-1.2-0.5-1.2-1.2v-2.5
	c0-1.9,3.4-1.2,3.4-3.4v-26.5c0-2.2-3.4-1.5-3.4-3.4V121c0-0.7,0.5-1.2,1.2-1.2h12.7c0.7,0,1.2,0.5,1.2,1.2v2.5
	c0,1.9-3.4,1.2-3.4,3.4v11.3L164.4,127z"/>
<path fill="#FDF9F4" d="M110.7,14.6c-1.1-0.8-1.2-1-0.4-2.3c3.4-5.5-0.4-9.5-4.5-11.2C103.2,0,100.5,0,100,0c-0.5,0-3.2,0-5.8,1.1
	c-4,1.7-7.9,5.7-4.5,11.2c0.8,1.3,0.7,1.5-0.4,2.3C82.6,18.8,78,27,78,36.5c0,13.9,9.8,25.1,22,25.1c12.1,0,22-11.2,22-25.1
	C122,27.1,117.4,18.8,110.7,14.6"/>
<path fill="#FDF9F4" d="M83.5,100.4v4.8c0,0.3,0.3,0.6,0.7,0.6h2.3c3,0,5.4-2.4,5.4-5.7c0-3.3-2.4-5.7-5.4-5.7h-2.3
	c-0.4,0-0.7,0.3-0.7,0.6v4.8V100.4z M83.5,87.1c0,0.4,0.3,0.6,0.7,0.6h2.5c2.7,0,4.8-1.4,4.8-5.7c0-4.2-2.2-5.8-4.8-5.8h-2.5
	c-0.4,0-0.7,0.3-0.7,0.6V87.1z M71.2,73.5v-2.6c0-0.7,0.6-1.3,1.3-1.3h18.5c5.4,0,9.9,4.2,9.9,11c0,5.5-3,9.2-7,10.1
	c-0.4,0.1-0.4,0.6,0,0.6c4.4,0.7,8.5,4.2,8.5,10.3c0,6.3-3.9,10.9-10.3,10.9H72.3c-0.7,0-1.2-0.6-1.2-1.3v-2.6c0-2,3.6-1.3,3.6-3.6
	V77.1C74.8,74.8,71.2,75.5,71.2,73.5"/>
<path fill="#FDF9F4" d="M30.8,70.7v14.1c0,0.7-0.6,1.2-1.2,1.2h-3.5c-0.7,0-1.3-0.6-1.3-1.3c0-6.8-1.8-8.4-3-8.4H20
	c-0.1,0-0.3,0.1-0.3,0.3V105c0,2.3,3.6,1.6,3.6,3.6v2.6c0,0.7-0.5,1.3-1,1.3H8.7c-0.7,0-1.3-0.6-1.3-1.3v-2.6c0-2,3.6-1.3,3.6-3.6
	V76.6c0-0.1-0.1-0.3-0.3-0.3H9c-1.2,0-3,1.6-3,8.5C6,85.5,5.4,86,4.7,86H1.2C0.5,86,0,85.5,0,84.8V70.7c0-0.6,0.5-1.2,1.2-1.2h28.4
	C30.3,69.5,30.8,70.1,30.8,70.7"/>
<path fill="#FDF9F4" d="M148.2,88.6c0,0.4,0.3,0.6,0.7,0.6h2.2c4.1,0,5.6-1.7,5.6-6.5c0-4.1-1.3-6.5-4.6-6.5h-3.2
	c-0.4,0-0.7,0.3-0.7,0.6V88.6z M159.8,112.6c-0.5,0-0.9-0.1-1.3-1.3c-4.2-14.2-4.9-15.6-7.2-15.6h-2.5c-0.3,0-0.6,0.3-0.6,0.6v8.7
	c0,2.3,3.6,1.6,3.6,3.6v2.6c0,0.7-0.6,1.3-1.3,1.3h-13.4c-0.7,0-1.3-0.6-1.3-1.3v-2.6c0-2,3.6-1.3,3.6-3.6V77.1
	c0-2.3-3.6-1.6-3.6-3.6v-2.6c0-0.7,0.6-1.3,1.3-1.3h18c6.6,0,11.1,4.1,11.1,11.6c0,8-4.3,10.6-8.1,11.6c-0.2,0.1-0.2,0.4,0,0.4
	c4.9,1.2,6,4.9,8.3,11.9c1.1,3.3,2.9,1.5,2.9,3.9v2.4c0,0.7-0.6,1.3-1.3,1.3H159.8z"/>
<path fill="#FDF9F4" d="M68.6,70.8v2.6c0,2-3.6,1.3-3.6,3.6v26c0,7.6-7.6,10.8-13.6,10.8c-5.8,0-14.3-3.1-14.3-10.8v-26
	c0-2.3-3.6-1.6-3.6-3.6v-2.6c0-0.7,0.6-1.3,1.3-1.3h14.1c0.7,0,1.3,0.6,1.3,1.3v2.6c0,2-3.6,1.3-3.6,3.6v26c0,1.8,1.7,4.1,5.4,4.1
	c3.6,0,5.4-2.3,5.4-4.1v-26c0-2.3-3.6-1.6-3.6-3.6v-2.6c0-0.7,0.6-1.3,1.3-1.3h12.4C68,69.5,68.6,70.1,68.6,70.8"/>
<path fill="#FDF9F4" d="M119.4,74.9c-5.2,0-5.2,4.6-5.2,16.4c0,11.7,0,16.4,5.2,16.4c5.2,0,5.2-4.6,5.2-16.4
	C124.5,79.6,124.5,74.9,119.4,74.9 M119.4,113.8c-15,0-15-12.4-15-22.5c0-10.1,0-22.5,15-22.5c15,0,15,12.4,15,22.5
	C134.4,101.5,134.4,113.8,119.4,113.8"/>
<path fill="#FDF9F4" d="M199,110.3c-3.3,1.6-8,3.5-13.3,3.5c-15.1,0-14.9-12.2-15-22.6c-0.1-10.1,0.9-22.4,12.6-22.4
	c4.6,0,5.8,2,7.1,2c1.6,0,1-1.3,2.6-1.3h2.8c0.6,0,1.2,0.6,1.2,1.2v13c0,0.7-0.6,1.2-1.2,1.2h-3.7c-0.7,0-1.3-0.6-1.3-1.2
	c0-4.4-1.7-8.7-5-8.7c-5.2,0-5.1,4.5-5.2,16.2c-0.1,12-0.1,16.5,5.2,16.5c3,0,4-1.6,4-3.8v-5.7c0-1.2-1.2-1.5-1.9-1.8
	c-0.7-0.2-1.3-0.4-1.3-1.5v-3.3c0-0.7,0.6-1.2,1.2-1.2h9.5c0.5,0,1,0.6,1,1.3v11.6c0,1.1,1.8,1.1,1.8,2.6v3
	C200,109.7,199.6,110,199,110.3"/>
</svg>
