<?xml version="1.0" encoding="utf-8"?>
<!-- Generator: Adobe Illustrator 21.0.0, SVG Export Plug-In . SVG Version: 6.00 Build 0)  -->
<svg version="1.1" id="Layer_1" xmlns="http://www.w3.org/2000/svg" xmlns:xlink="http://www.w3.org/1999/xlink" x="0px" y="0px"
	 viewBox="0 0 543.3 91.8" enable-background="new 0 0 543.3 91.8" xml:space="preserve">
<g>
	<g>
		<defs>
			<rect id="SVGID_1_" width="543.3" height="91.8"/>
		</defs>
		<clipPath id="SVGID_2_">
			<use xlink:href="#SVGID_1_"  overflow="visible"/>
		</clipPath>
		<g clip-path="url(#SVGID_2_)">
			<defs>
				<rect id="SVGID_3_" y="0" width="543.3" height="91.8"/>
			</defs>
			<clipPath id="SVGID_4_">
				<use xlink:href="#SVGID_3_"  overflow="visible"/>
			</clipPath>
			<path clip-path="url(#SVGID_4_)" fill="#8BC7B9" d="M107.7,89.2c-0.3,0.9-1.3,1.5-2.3,1.5H95c-1,0-2-0.6-2.3-1.5L71.9,37.9
				c-0.3-0.7,0.2-1.5,1-1.5h11.9c1,0,1.9,0.6,2.2,1.5l12.6,33.7c0.1,0.5,0.8,0.5,1,0l12.7-33.7c0.3-0.9,1.3-1.5,2.2-1.5h11.9
				c0.8,0,1.3,0.8,1,1.5L107.7,89.2z"/>
			<path clip-path="url(#SVGID_4_)" fill="#8BC7B9" d="M127.1,63.6c0-15.5,13.2-28.2,28.9-28.2c15.9,0,28.9,12.7,28.9,28.2
				c0,15.5-13,28.2-28.9,28.2C140.3,91.8,127.1,79.1,127.1,63.6 M141.2,63.6c0,8.2,6.6,14.8,14.8,14.8c8.4,0,14.8-6.6,14.8-14.8
				s-6.4-14.8-14.8-14.8C147.9,48.8,141.2,55.4,141.2,63.6"/>
			<path clip-path="url(#SVGID_4_)" fill="#8BC7B9" d="M192.3,90.8c-0.9,0-1.7-0.8-1.7-1.7v-51c0-0.9,0.8-1.7,1.7-1.7h10.5
				c0.9,0,1.7,0.8,1.7,1.7v37.9c0,0.8,0.6,1.4,1.4,1.4h23c0.9,0,1.7,0.8,1.7,1.7v10.1c0,0.9-0.8,1.7-1.7,1.7H192.3z"/>
			<path clip-path="url(#SVGID_4_)" fill="#8BC7B9" d="M269.9,38.1c0-0.9,0.8-1.7,1.7-1.7h10.5c0.9,0,1.7,0.8,1.7,1.7V67
				c0,14-8.8,24.8-25,24.8c-16.3,0-25-10.8-25-24.8V38.1c0-0.9,0.8-1.7,1.7-1.7H246c0.9,0,1.7,0.8,1.7,1.7v28.1
				c0,7.9,3.8,12.2,11,12.2c7.3,0,11.2-4.3,11.2-12.2V38.1z"/>
			<path clip-path="url(#SVGID_4_)" fill="#8BC7B9" d="M305.2,89.1c0,0.9-0.8,1.7-1.7,1.7H293c-0.9,0-1.7-0.8-1.7-1.7v-51
				c0-0.9,0.8-1.7,1.7-1.7h8.4c1,0,2.1,0.5,2.7,1.3l22.4,28c0.3,0.4,0.8,0.2,0.8-0.3V38.1c0-0.9,0.8-1.7,1.7-1.7h10.5
				c0.9,0,1.7,0.8,1.7,1.7v51c0,0.9-0.8,1.7-1.7,1.7h-8.4c-1,0-2.1-0.5-2.7-1.3l-22.4-27.9c-0.3-0.4-0.8-0.2-0.8,0.3V89.1z"/>
			<path clip-path="url(#SVGID_4_)" fill="#8BC7B9" d="M347.9,49.9c-0.9,0-1.7-0.8-1.7-1.7V38.1c0-0.9,0.8-1.7,1.7-1.7h44.5
				c0.9,0,1.7,0.8,1.7,1.7v10.2c0,0.9-0.8,1.7-1.7,1.7h-13.9c-0.8,0-1.4,0.6-1.4,1.4v37.8c0,0.9-0.8,1.7-1.7,1.7h-10.6
				c-0.9,0-1.7-0.8-1.7-1.7V51.3c0-0.8-0.6-1.4-1.4-1.4H347.9z"/>
			<path clip-path="url(#SVGID_4_)" fill="#8BC7B9" d="M400.8,90.8c-0.9,0-1.7-0.8-1.7-1.7v-51c0-0.9,0.8-1.7,1.7-1.7h38.4
				c0.9,0,1.7,0.8,1.7,1.7v10.2c0,0.9-0.8,1.7-1.7,1.7h-24.7c-0.8,0-1.4,0.6-1.4,1.4v5c0,0.8,0.6,1.4,1.4,1.4h19.8
				c0.9,0,1.7,0.8,1.7,1.7v9.3c0,0.9-0.8,1.7-1.7,1.7h-19.8c-0.8,0-1.4,0.6-1.4,1.4v4.2c0,0.8,0.6,1.4,1.4,1.4h24.7
				c0.9,0,1.7,0.8,1.7,1.7v10.1c0,0.9-0.8,1.7-1.7,1.7H400.8z"/>
			<path clip-path="url(#SVGID_4_)" fill="#8BC7B9" d="M449.3,90.8c-0.9,0-1.7-0.8-1.7-1.7v-51c0-0.9,0.8-1.7,1.7-1.7h38.4
				c0.9,0,1.7,0.8,1.7,1.7v10.2c0,0.9-0.8,1.7-1.7,1.7h-24.7c-0.8,0-1.4,0.6-1.4,1.4v5c0,0.8,0.6,1.4,1.4,1.4h19.8
				c0.9,0,1.7,0.8,1.7,1.7v9.3c0,0.9-0.8,1.7-1.7,1.7h-19.8c-0.8,0-1.4,0.6-1.4,1.4v4.2c0,0.8,0.6,1.4,1.4,1.4h24.7
				c0.9,0,1.7,0.8,1.7,1.7v10.1c0,0.9-0.8,1.7-1.7,1.7H449.3z"/>
			<path clip-path="url(#SVGID_4_)" fill="#8BC7B9" d="M496.1,38.1c0-0.9,0.8-1.7,1.7-1.7h24.9c13.9,0,20.4,9.1,20.4,19.9
				c0,7.2-3,13.9-9.5,17.4c-0.7,0.3-0.8,1.2-0.4,1.8l10,13.9c0.4,0.6,0,1.4-0.7,1.4h-13.3c-1,0-2-0.6-2.6-1.4l-8.5-12.1
				c-0.5-0.7-1.4-1.1-2.2-1.1h-4.3c-0.8,0-1.4,0.6-1.4,1.4v11.5c0,0.9-0.8,1.7-1.7,1.7h-10.5c-0.9,0-1.7-0.8-1.7-1.7V38.1z
				 M521.9,49.1h-10.5c-0.8,0-1.4,0.6-1.4,1.4v11.7c0,0.8,0.6,1.4,1.4,1.4h10.5c5.6,0,7.7-3.4,7.7-7.2
				C529.6,52.2,527.5,49.1,521.9,49.1"/>
			<path clip-path="url(#SVGID_4_)" fill="#FFD962" d="M386.9,4.9c-2.8,0-5.2,1.6-6.4,4H102.9c-1.7,0-3.2,1.4-3.2,3.2
				c0,1.7,1.4,3.2,3.2,3.2h277.6c1.2,2.3,3.6,4,6.4,4c3.9,0,7.1-3.2,7.1-7.1C394.1,8.1,390.9,4.9,386.9,4.9"/>
			<path clip-path="url(#SVGID_4_)" fill="#FFF9F4" d="M70.5,13.2H41.6v64.7c1.2,0.6,2,1.7,2,3.1c0,1.8-1.6,3.4-3.4,3.4
				c-1.8,0-3.4-1.6-3.4-3.4c0-1.4,0.8-2.6,2-3.1V13.2h-31c-0.8,0-1.4-0.6-1.4-1.4c0-0.8,0.6-1.4,1.4-1.4h62.7c0.8,0,1.4,0.6,1.4,1.4
				C71.9,12.6,71.2,13.2,70.5,13.2 M77.5,0H2.8C1.3,0,0,1.3,0,2.8v17.2c0,1.6,1.3,2.8,2.8,2.8h23.3c1.3,0,2.4,1.1,2.4,2.4V89
				c0,1.6,1.3,2.8,2.8,2.8h17.9c1.6,0,2.8-1.3,2.8-2.8V25.2c0-1.3,1.1-2.4,2.4-2.4h23.3c1.6,0,2.8-1.3,2.8-2.8V2.8
				C80.4,1.3,79.1,0,77.5,0"/>
		</g>
	</g>
</g>
</svg>
